<svg width="21" height="23" viewBox="0 0 21 23" fill="none" xmlns="http://www.w3.org/2000/svg">
<path d="M0 22.9709L4.43083 11.9193C4.51572 11.7665 4.85864 11.461 5.55127 11.461H11.2553C12.1211 11.461 13.5471 11.5628 13.9037 10.7989C14.2602 10.035 14.4777 9.659 14.9732 8.558C15.4315 7.53946 15.4315 7.59025 16.3992 7.59027L19.0475 7.59024C18.0459 9.64438 16.4501 13.6508 15.3297 14.4148C14.5852 14.9225 13.4962 14.9751 12.8341 14.9751H7.13008L3.92154 22.9709H0Z" fill="#2C6DB5"/>
<path d="M20.3207 4.07435C21.0133 2.64833 21.0337 2.64831 20.9828 2.64833H16.4501L17.6724 0H14.8204C14.3111 0 14.0055 0 13.6999 0.662079C13.4555 1.19174 13.0066 2.20694 12.8127 2.64833H11.2044C8.86165 2.64833 7.79214 3.92154 7.28285 5.14384C6.87542 6.12168 5.68707 8.74283 5.14383 9.93118H8.86165C9.26909 8.92957 10.1043 6.86525 10.1858 6.62079C10.2877 6.31521 10.3895 6.11149 11.0516 6.11149C11.7137 6.11149 13.8527 6.06057 16.8575 6.11149C19.8623 6.16242 19.4549 5.85687 20.3207 4.07435Z" fill="#2C6DB5"/>
</svg>
